#define l1_width 26
#define l1_height 26
static char l1_bits[] = {
  0x00, 0x00, 0x00, 0x00, 0x00, 0x00, 0x00, 0x00, 0x00, 0x20, 0x00, 0x00, 
  0x00, 0x33, 0x03, 0x00, 0x00, 0x87, 0x03, 0x00, 0x00, 0x10, 0x08, 0x00, 
  0x40, 0xFC, 0x18, 0x00, 0xF0, 0xFE, 0x1D, 0x00, 0x80, 0xCF, 0x13, 0x00, 
  0x00, 0x03, 0x07, 0x00, 0xB0, 0x03, 0x17, 0x00, 0xB8, 0x03, 0x7A, 0x00, 
  0x00, 0x03, 0x07, 0x00, 0x80, 0x03, 0x03, 0x00, 0xC0, 0x87, 0x1B, 0x00, 
  0x70, 0x87, 0x3B, 0x00, 0x00, 0xCE, 0x01, 0x00, 0x00, 0xCC, 0x00, 0x00, 
  0x00, 0xC4, 0x00, 0x00, 0x00, 0x78, 0x00, 0x00, 0x00, 0x78, 0x00, 0x00, 
  0x00, 0x78, 0x00, 0x00, 0x00, 0x30, 0x00, 0x00, 0x00, 0x30, 0x00, 0x00, 
  0x00, 0x00, 0x00, 0x00, 0x00, 0x00, 0x00, 0x00, };
