#define music1_width 26
#define music1_height 26
static char music1_bits[] = {
  0x00, 0x18, 0x00, 0x00, 0x00, 0x38, 0x00, 0x00, 0x00, 0x78, 0x00, 0x00, 
  0x00, 0xF8, 0x00, 0x00, 0x00, 0xF8, 0x03, 0x00, 0x00, 0xB8, 0x07, 0x00, 
  0x00, 0x18, 0x0E, 0x00, 0x00, 0x38, 0x0C, 0x00, 0x00, 0x38, 0x18, 0x00, 
  0x00, 0x38, 0x10, 0x00, 0x00, 0x18, 0x10, 0x00, 0x00, 0x38, 0x00, 0x00, 
  0x00, 0x38, 0x00, 0x00, 0x00, 0x38, 0x00, 0x00, 0x00, 0x18, 0x00, 0x00, 
  0x00, 0x38, 0x00, 0x00, 0x00, 0x38, 0x00, 0x00, 0x00, 0x38, 0x00, 0x00, 
  0x00, 0x18, 0x00, 0x00, 0x00, 0x3F, 0x00, 0x00, 0xC0, 0x1F, 0x00, 0x00, 
  0xE0, 0x3F, 0x00, 0x00, 0xE0, 0x3F, 0x00, 0x00, 0xE0, 0x1F, 0x00, 0x00, 
  0xE0, 0x0F, 0x00, 0x00, 0x80, 0x0F, 0x00, 0x00, };
